<?xml version="1.0" encoding="UTF-8"?><svg xmlns="http://www.w3.org/2000/svg" viewBox="0 0 16.51 16.51"><defs><style>.d{fill:#fff;}.e{fill:#6e90ca;}</style></defs><g id="a"/><g id="b"><g id="c"><g><path class="e" d="M3.39,0H13.12C14.99,0,16.51,1.52,16.51,3.39V13.12c0,1.87-1.52,3.39-3.39,3.39H3.39c-1.87,0-3.39-1.52-3.39-3.39V3.39C0,1.52,1.52,0,3.39,0Z"/><g><path class="d" d="M10.64,2.03H5.87c-2.12,0-3.84,1.72-3.84,3.84v4.78c0,2.12,1.72,3.84,3.84,3.84h4.78c2.12,0,3.84-1.72,3.84-3.84V5.87c0-2.12-1.72-3.84-3.84-3.84Zm2.64,8.16c0,1.71-1.39,3.1-3.1,3.1h-3.86c-1.71,0-3.1-1.39-3.1-3.1v-3.86c0-1.71,1.39-3.1,3.1-3.1h3.86c1.71,0,3.1,1.39,3.1,3.1v3.86Z"/><path class="d" d="M8.42,5c-1.81,0-3.28,1.47-3.28,3.28s1.47,3.28,3.28,3.28,3.28-1.47,3.28-3.28-1.47-3.28-3.28-3.28Zm0,5.25c-1.09,0-1.97-.88-1.97-1.97s.88-1.97,1.97-1.97,1.97,.88,1.97,1.97-.88,1.97-1.97,1.97Z"/><path class="d" d="M12.31,4.95c0,.46-.37,.83-.83,.83s-.83-.37-.83-.83,.37-.83,.83-.83,.83,.37,.83,.83Z"/></g></g></g></g></svg>