<?xml version="1.0" encoding="UTF-8"?><svg xmlns="http://www.w3.org/2000/svg" viewBox="0 0 54.67 47.46"><defs><style>.d{fill:#fff;}.e{fill:#f37e53;}.f{fill:#6e90ca;}</style></defs><g id="a"/><g id="b"><g id="c"><g><g><path class="f" d="M3.66,34.02h-1.03c.08,.47,.12,.85,.12,1.15v4.16H.1v-12.06H2.75v3.41c0,.51-.04,.99-.12,1.43h1.03l3.06-4.84h2.88l-3.11,4.81c-.2,.35-.49,.67-.87,.96v.07c.42,.29,.76,.65,1.01,1.07l3.18,5.16h-2.97l-3.18-5.31Z"/><path class="f" d="M18.94,30.72v8.62h-2.04l-.19-1.19c-1.19,.94-2.38,1.42-3.56,1.42-1.62,0-2.43-.8-2.43-2.39v-6.45h2.59v5.66c-.01,.37,.05,.64,.19,.79,.14,.15,.38,.23,.73,.23,.5,0,1.22-.24,2.15-.72v-5.96h2.57Z"/><path class="f" d="M26.43,35.89h-3.11c.08,.63,.27,1.05,.57,1.27,.3,.22,.79,.32,1.48,.32,.92,0,1.99-.06,3.22-.19l.24,1.61c-.9,.43-2.15,.65-3.76,.65s-2.77-.35-3.46-1.05c-.69-.7-1.03-1.85-1.03-3.46,0-1.69,.33-2.87,1-3.55,.67-.68,1.8-1.01,3.38-1.01,1.43,0,2.47,.25,3.11,.74,.64,.5,.97,1.25,.98,2.26,0,.8-.21,1.41-.62,1.81-.41,.4-1.08,.6-2,.6Zm-3.16-1.56h2.45c.31,0,.53-.08,.64-.23,.11-.15,.17-.37,.17-.66,0-.41-.1-.69-.31-.85-.21-.16-.59-.24-1.15-.24-.66,0-1.12,.13-1.36,.39-.24,.26-.38,.79-.42,1.58Z"/><path class="f" d="M33.19,27.1v9.42c0,.58,.33,.87,.98,.87h.7l.3,1.8c-.44,.23-1.13,.35-2.06,.35-.77,0-1.37-.21-1.82-.62-.44-.41-.66-1-.66-1.76v-10.07h2.57Z"/><path class="f" d="M36.43,32.64l-.24-1.75c1.55-.28,3.05-.42,4.49-.42,1.16,0,2.02,.24,2.57,.71,.55,.47,.82,1.29,.82,2.46v5.7h-2.04l-.26-1.31c-.86,1.01-1.92,1.52-3.18,1.52-.83,0-1.5-.22-2.03-.66s-.79-1.05-.79-1.83v-.87c0-.69,.23-1.22,.7-1.61,.47-.38,1.11-.58,1.94-.58h3.08v-.38c-.01-.44-.11-.74-.31-.89-.19-.15-.56-.23-1.11-.23-.96,0-2.17,.05-3.63,.14Zm1.89,3.74v.33c0,.59,.34,.89,1.01,.89s1.42-.28,2.15-.84v-1.21h-2.32c-.56,.01-.84,.29-.84,.82Z"/><path class="f" d="M48.08,30.72l.19,1.26c.36-.43,.86-.79,1.49-1.07,.63-.28,1.28-.42,1.93-.42,1.98,0,2.97,1.54,2.97,4.61,0,1.65-.27,2.81-.8,3.47-.53,.66-1.36,.99-2.49,.99s-2.13-.28-2.88-.84c.06,.59,.08,1.21,.05,1.85v2.08h-2.57v-11.94h2.1Zm.47,2.62v3.95c.91,.23,1.56,.35,1.96,.35,.57,0,.96-.16,1.18-.49,.22-.33,.32-1.01,.32-2.04s-.1-1.7-.3-2.05c-.2-.36-.55-.53-1.05-.53-.57,0-1.28,.27-2.11,.82Z"/></g><g><polygon class="d" points="26.52 0 8.22 11.37 26.52 22.9 44.82 11.37 26.52 0"/><g><path class="e" d="M12.73,11.61h-2.88l16.48,10.38v-1.81L12.73,11.61Zm-2.92-.44h2.89L26.33,2.71V.91L9.81,11.17Z"/><path class="e" d="M40.31,11.61h2.88l-16.48,10.38v-1.81l13.6-8.56Zm2.92-.44h-2.89L26.71,2.71V.91l16.51,10.26Z"/></g><g><path class="f" d="M18.6,11.61h-2.87l10.6,6.67v-1.81l-7.73-4.87Zm-2.88-.44h2.9l7.71-4.79v-1.81l-10.61,6.6Z"/><path class="f" d="M34.44,11.61h2.87l-10.6,6.67v-1.81l7.73-4.87Zm2.88-.44h-2.9l-7.71-4.79v-1.81l10.61,6.6Z"/></g><g><path class="e" d="M21.37,11.17h2.9l2.06-1.28v-1.81l-4.95,3.08Zm2.85,.44h-2.87l4.97,3.13v-1.81l-2.1-1.33Z"/><path class="e" d="M31.67,11.17h-2.9l-2.06-1.28v-1.81l4.95,3.08Zm-2.85,.44h2.87l-4.97,3.13v-1.81l2.1-1.33Z"/></g></g><g><path class="e" d="M2.31,43.83c.09,0,.17,.03,.24,.08,.07,.05,.12,.12,.14,.21l.92,3.27h-1.14l-.54-2.31c-.01-.07-.03-.13-.04-.2-.01-.07-.02-.14-.03-.2h-.14c0,.07-.02,.13-.03,.2-.01,.07-.02,.14-.04,.2l-.54,2.31H0l.92-3.27c.02-.09,.07-.16,.14-.21,.07-.05,.15-.08,.24-.08h1.02Zm.44,2v.78H.86v-.78h1.89Z"/><path class="e" d="M7.49,43.81c.2,0,.41,0,.62,0,.21,0,.42,0,.62,.02s.38,.03,.55,.05l-.05,.78h-1.24c-.07,0-.12,.02-.16,.05-.04,.03-.06,.08-.06,.13v2.54h-1.12v-2.77c0-.24,.08-.44,.24-.58,.16-.15,.36-.22,.61-.22Zm-.75,1.46h2.3v.74h-2.3v-.74Z"/><path class="e" d="M13.88,43.78c.35,0,.64,.03,.86,.1,.22,.07,.38,.18,.49,.33,.1,.16,.16,.37,.16,.65,0,.14-.02,.27-.06,.39-.04,.12-.12,.22-.22,.3-.1,.08-.25,.13-.44,.15v.03c.07,0,.14,.03,.22,.06,.08,.03,.15,.09,.22,.16,.07,.08,.12,.19,.14,.33l.28,1.09h-1.17l-.23-1.06c-.02-.1-.05-.16-.1-.2-.04-.03-.11-.05-.21-.05-.26,0-.47,0-.63,0s-.3,0-.41,0c-.11,0-.23,0-.34-.02l.02-.76h1.41c.11,0,.19-.01,.25-.03,.06-.02,.1-.06,.12-.11,.02-.05,.03-.13,.03-.22s-.01-.18-.03-.23c-.02-.05-.06-.09-.12-.11-.06-.02-.14-.03-.25-.03-.36,0-.66,0-.9,0-.24,0-.41,.01-.5,.02l-.08-.76c.16-.02,.31-.03,.45-.04,.14,0,.29-.01,.46-.01,.17,0,.37,0,.61,0Zm-.41,.05v3.56h-1.1v-3.56h1.1Z"/><path class="e" d="M19.73,43.83v3.56h-1.11v-3.56h1.11Z"/><path class="e" d="M24.53,43.77c.19,0,.34,0,.47,.02,.13,.01,.25,.02,.36,.04,.11,.02,.22,.05,.34,.08l-.08,.81c-.12,0-.23,0-.33,0s-.21,0-.33,0c-.12,0-.26,0-.42,0-.12,0-.21,.02-.27,.07-.06,.05-.11,.14-.13,.27-.02,.13-.04,.31-.04,.55s.01,.43,.04,.55c.02,.13,.07,.22,.13,.27,.06,.05,.15,.07,.27,.07,.26,0,.47,0,.65,0,.17,0,.35-.02,.52-.03l.08,.81c-.18,.06-.36,.11-.55,.13-.19,.03-.42,.04-.7,.04-.39,0-.71-.06-.94-.18-.24-.12-.41-.31-.51-.58-.1-.27-.16-.63-.16-1.08s.05-.81,.16-1.08c.1-.27,.28-.46,.51-.58,.24-.12,.55-.18,.94-.18Z"/><path class="e" d="M31.04,43.83c.09,0,.17,.03,.24,.08,.07,.05,.12,.12,.14,.21l.92,3.27h-1.14l-.54-2.31c-.01-.07-.03-.13-.04-.2-.01-.07-.02-.14-.03-.2h-.14c0,.07-.02,.13-.03,.2-.01,.07-.02,.14-.04,.2l-.54,2.31h-1.14l.92-3.27c.02-.09,.07-.16,.14-.21,.07-.05,.15-.08,.24-.08h1.02Zm.44,2v.78h-1.89v-.78h1.89Z"/><path class="e" d="M40.66,43.76c.19,0,.39,.01,.63,.03,.23,.02,.45,.07,.67,.15l-.07,.72c-.15,0-.35,0-.57,0-.23,0-.45,0-.68,0-.07,0-.12,0-.16,0-.04,0-.08,.01-.1,.02-.02,.01-.04,.02-.05,.04-.01,.02-.02,.04-.02,.07,0,.05,.02,.09,.06,.12,.04,.03,.12,.07,.24,.12l.64,.27c.3,.13,.5,.27,.62,.44,.12,.17,.18,.38,.18,.64,0,.2-.02,.37-.07,.51-.05,.14-.13,.25-.24,.33-.11,.08-.26,.15-.45,.19-.19,.04-.42,.06-.7,.06-.12,0-.3,0-.55-.03-.24-.02-.52-.07-.83-.15l.07-.78c.21,0,.4,0,.57,.01,.17,0,.32,0,.45,.01,.13,0,.22,0,.28,0,.1,0,.17,0,.22-.01,.05,0,.08-.02,.1-.04,.02-.02,.03-.04,.03-.07,0-.03,0-.06-.02-.09-.01-.02-.04-.04-.07-.06-.03-.02-.08-.04-.15-.07l-.71-.31c-.29-.13-.49-.28-.61-.44-.12-.16-.18-.37-.18-.63,0-.2,.03-.37,.08-.51,.05-.13,.14-.24,.25-.32,.11-.08,.26-.14,.45-.17,.19-.03,.41-.05,.68-.05Z"/><path class="e" d="M47.25,43.83c.09,0,.17,.03,.24,.08,.07,.05,.12,.12,.14,.21l.92,3.27h-1.14l-.54-2.31c-.01-.07-.03-.13-.04-.2-.01-.07-.02-.14-.03-.2h-.14c0,.07-.02,.13-.03,.2-.01,.07-.02,.14-.04,.2l-.54,2.31h-1.14l.92-3.27c.02-.09,.07-.16,.14-.21,.07-.05,.15-.08,.24-.08h1.02Zm.44,2v.78h-1.89v-.78h1.89Z"/><path class="e" d="M52.98,43.76c.19,0,.39,.01,.63,.03,.23,.02,.45,.07,.67,.15l-.07,.72c-.15,0-.35,0-.57,0-.23,0-.45,0-.68,0-.07,0-.12,0-.16,0-.04,0-.08,.01-.1,.02-.02,.01-.04,.02-.05,.04-.01,.02-.02,.04-.02,.07,0,.05,.02,.09,.06,.12,.04,.03,.12,.07,.24,.12l.64,.27c.3,.13,.5,.27,.62,.44,.12,.17,.18,.38,.18,.64,0,.2-.02,.37-.07,.51-.05,.14-.13,.25-.24,.33-.11,.08-.26,.15-.45,.19-.19,.04-.42,.06-.7,.06-.12,0-.3,0-.55-.03-.24-.02-.52-.07-.83-.15l.07-.78c.21,0,.4,0,.57,.01,.17,0,.32,0,.45,.01,.13,0,.22,0,.28,0,.1,0,.17,0,.22-.01,.05,0,.08-.02,.1-.04,.02-.02,.03-.04,.03-.07,0-.03,0-.06-.02-.09-.01-.02-.04-.04-.07-.06-.03-.02-.08-.04-.15-.07l-.71-.31c-.29-.13-.49-.28-.61-.44-.12-.16-.18-.37-.18-.63,0-.2,.03-.37,.08-.51,.05-.13,.14-.24,.25-.32,.11-.08,.26-.14,.45-.17,.19-.03,.41-.05,.68-.05Z"/></g></g></g></g></svg>