<?xml version="1.0" encoding="UTF-8"?><svg xmlns="http://www.w3.org/2000/svg" viewBox="0 0 115.34 30.75"><defs><style>.d{fill:#fff;}.e{fill:#f37e53;}.f{fill:#6e90ca;}</style></defs><g id="a"/><g id="b"><g id="c"><g><g><path class="f" d="M53.05,14.34h-1.26c.1,.57,.15,1.04,.15,1.41v5.08h-3.24V6.1h3.24v4.16c0,.63-.05,1.21-.15,1.75h1.26l3.73-5.91h3.52l-3.8,5.87c-.24,.43-.6,.82-1.07,1.17v.09c.51,.36,.92,.79,1.24,1.3l3.88,6.3h-3.63l-3.88-6.49Z"/><path class="f" d="M71.7,10.3v10.52h-2.5l-.23-1.45c-1.45,1.15-2.9,1.73-4.35,1.73-1.98,0-2.97-.97-2.97-2.92v-7.88h3.16v6.91c-.01,.46,.06,.78,.23,.96,.17,.19,.47,.28,.9,.28,.61,0,1.49-.29,2.63-.88v-7.28h3.14Z"/><path class="f" d="M80.85,16.62h-3.8c.1,.77,.33,1.28,.69,1.55,.36,.26,.96,.39,1.8,.39,1.12,0,2.43-.08,3.93-.23l.3,1.96c-1.1,.53-2.63,.79-4.59,.79s-3.39-.43-4.23-1.28c-.84-.85-1.26-2.26-1.26-4.23,0-2.06,.41-3.51,1.23-4.33,.82-.83,2.19-1.24,4.13-1.24,1.75,0,3.02,.3,3.8,.91,.78,.6,1.18,1.53,1.2,2.76,0,.98-.25,1.72-.76,2.21-.51,.49-1.32,.74-2.44,.74Zm-3.86-1.9h2.99c.38,0,.64-.09,.78-.28,.14-.18,.2-.46,.2-.81,0-.5-.13-.84-.38-1.04-.26-.19-.73-.29-1.41-.29-.81,0-1.37,.16-1.66,.48-.3,.32-.47,.96-.51,1.93Z"/><path class="f" d="M89.11,5.89v11.5c0,.71,.4,1.07,1.2,1.07h.85l.36,2.2c-.54,.28-1.38,.43-2.52,.43-.94,0-1.68-.25-2.22-.76-.54-.5-.81-1.22-.81-2.14V5.89h3.14Z"/><path class="f" d="M93.06,12.65l-.3-2.13c1.89-.34,3.72-.51,5.48-.51,1.42,0,2.47,.29,3.14,.86,.67,.58,1,1.58,1,3v6.96h-2.5l-.32-1.6c-1.05,1.24-2.35,1.86-3.88,1.86-1.01,0-1.84-.27-2.48-.8s-.96-1.28-.96-2.23v-1.07c0-.84,.28-1.49,.85-1.96,.57-.47,1.36-.7,2.37-.7h3.76v-.47c-.01-.54-.14-.9-.37-1.09-.23-.18-.69-.28-1.36-.28-1.17,0-2.65,.06-4.44,.17Zm2.3,4.57v.41c0,.73,.41,1.09,1.24,1.09s1.73-.34,2.63-1.02v-1.47h-2.84c-.68,.01-1.02,.35-1.02,1Z"/><path class="f" d="M107.3,10.3l.23,1.54c.44-.53,1.05-.96,1.82-1.3,.78-.34,1.56-.51,2.36-.51,2.42,0,3.63,1.88,3.63,5.63,0,2.02-.32,3.43-.97,4.24-.65,.8-1.66,1.21-3.04,1.21s-2.6-.34-3.52-1.02c.07,.73,.09,1.48,.06,2.26v2.54h-3.14V10.3h2.56Zm.58,3.2v4.82c1.11,.28,1.91,.43,2.39,.43,.7,0,1.18-.2,1.44-.6,.26-.4,.39-1.23,.39-2.5s-.12-2.07-.36-2.51c-.24-.43-.67-.65-1.28-.65-.7,0-1.56,.33-2.58,1Z"/></g><g><polygon class="d" points="22.35 0 0 13.89 22.35 27.97 44.7 13.89 22.35 0"/><g><path class="e" d="M5.51,14.18H1.99l20.12,12.67v-2.22L5.51,14.18Zm-3.56-.53h3.53L22.11,3.31V1.11L1.95,13.64Z"/><path class="e" d="M39.19,14.18h3.52l-20.12,12.67v-2.22l16.6-10.46Zm3.56-.53h-3.53L22.59,3.31V1.11l20.17,12.53Z"/></g><g><path class="f" d="M12.67,14.18h-3.51l12.95,8.15v-2.21l-9.44-5.94Zm-3.52-.53h3.54l9.42-5.85v-2.21L9.16,13.64Z"/><path class="f" d="M32.02,14.18h3.51l-12.95,8.15v-2.21l9.44-5.94Zm3.52-.53h-3.54l-9.42-5.85v-2.21l12.96,8.06Z"/></g><g><path class="e" d="M16.06,13.64h3.54l2.52-1.56v-2.21l-6.05,3.77Zm3.48,.53h-3.5l6.07,3.82v-2.21l-2.57-1.62Z"/><path class="e" d="M28.64,13.64h-3.54l-2.52-1.56v-2.21l6.05,3.77Zm-3.48,.53h3.5l-6.07,3.82v-2.21l2.57-1.62Z"/></g></g><g><path class="e" d="M51.4,26.32c.11,0,.21,.03,.29,.09,.08,.06,.14,.15,.17,.26l1.13,3.99h-1.39l-.65-2.83c-.02-.08-.03-.16-.04-.25-.01-.09-.02-.17-.03-.25h-.17c0,.08-.02,.16-.03,.25-.01,.09-.03,.17-.04,.25l-.65,2.83h-1.39l1.13-3.99c.03-.11,.09-.2,.17-.26,.08-.06,.18-.09,.29-.09h1.24Zm.53,2.45v.96h-2.31v-.96h2.31Z"/><path class="e" d="M57.73,26.3c.24,0,.49,0,.76,0,.26,0,.51,0,.76,.02s.47,.03,.67,.06l-.06,.96h-1.52c-.08,0-.15,.02-.2,.06-.05,.04-.07,.1-.07,.16v3.1h-1.37v-3.38c0-.29,.1-.53,.29-.71,.19-.18,.44-.27,.74-.27Zm-.92,1.78h2.81v.91h-2.81v-.91Z"/><path class="e" d="M65.53,26.26c.43,0,.78,.04,1.04,.12,.27,.08,.47,.22,.59,.41,.13,.19,.19,.46,.19,.8,0,.17-.03,.33-.08,.48-.05,.15-.14,.27-.27,.37-.13,.1-.31,.16-.53,.18v.04c.08,0,.17,.03,.26,.07,.1,.04,.19,.11,.27,.2,.08,.09,.14,.23,.18,.41l.34,1.33h-1.43l-.28-1.29c-.03-.12-.06-.2-.12-.24-.05-.04-.14-.06-.25-.06-.31,0-.57,0-.77,0s-.37,0-.51,0c-.14,0-.28-.01-.42-.02l.02-.93h1.72c.13,0,.23-.01,.3-.04,.07-.03,.12-.07,.15-.14,.03-.06,.04-.16,.04-.27s-.01-.21-.04-.28c-.03-.06-.08-.11-.15-.13-.07-.03-.17-.04-.3-.04-.44,0-.8,0-1.1,0-.3,0-.5,.01-.61,.03l-.1-.93c.19-.02,.37-.04,.54-.04,.17,0,.36-.01,.56-.02,.2,0,.45,0,.74,0Zm-.5,.06v4.34h-1.34v-4.34h1.34Z"/><path class="e" d="M72.66,26.32v4.34h-1.35v-4.34h1.35Z"/><path class="e" d="M78.53,26.25c.23,0,.42,0,.58,.02,.16,.01,.31,.03,.44,.05,.13,.02,.27,.06,.41,.1l-.1,.99c-.15,0-.28,0-.41,0s-.26,0-.4,0c-.14,0-.31,0-.52,0-.14,0-.25,.03-.33,.09-.08,.06-.13,.17-.16,.33-.03,.16-.04,.38-.04,.68s.01,.52,.04,.68c.03,.16,.08,.27,.16,.33,.08,.06,.19,.09,.33,.09,.31,0,.58,0,.79,0,.21,0,.42-.02,.63-.04l.1,.99c-.22,.08-.44,.13-.67,.16-.23,.03-.51,.05-.85,.05-.48,0-.86-.07-1.15-.22-.29-.14-.5-.38-.63-.71-.13-.33-.19-.77-.19-1.32s.06-.99,.19-1.32c.13-.33,.34-.56,.63-.71,.29-.14,.67-.22,1.15-.22Z"/><path class="e" d="M86.48,26.32c.11,0,.21,.03,.29,.09,.08,.06,.14,.15,.17,.26l1.13,3.99h-1.39l-.65-2.83c-.02-.08-.03-.16-.04-.25-.01-.09-.02-.17-.03-.25h-.17c0,.08-.02,.16-.03,.25-.01,.09-.03,.17-.04,.25l-.65,2.83h-1.39l1.13-3.99c.03-.11,.09-.2,.17-.26,.08-.06,.18-.09,.29-.09h1.24Zm.53,2.45v.96h-2.31v-.96h2.31Z"/><path class="e" d="M98.23,26.24c.23,0,.48,.01,.76,.04,.28,.03,.55,.09,.81,.18l-.08,.87c-.19,0-.42,0-.7,0-.28,0-.55,0-.83,0-.08,0-.15,0-.2,0-.05,0-.09,.01-.12,.03-.03,.01-.05,.03-.06,.05-.01,.02-.02,.05-.02,.08,0,.06,.03,.11,.08,.15,.05,.04,.15,.09,.3,.15l.79,.33c.36,.16,.61,.33,.76,.54,.14,.2,.22,.46,.22,.78,0,.24-.03,.45-.09,.62-.06,.17-.16,.31-.29,.41-.14,.1-.32,.18-.54,.23-.23,.05-.51,.07-.85,.07-.15,0-.37-.01-.67-.03-.3-.02-.64-.08-1.01-.18l.08-.96c.25,0,.48,0,.69,.02,.21,0,.39,.01,.54,.01,.15,0,.27,0,.34,0,.12,0,.21,0,.27-.01,.06,0,.1-.02,.13-.05,.02-.02,.03-.05,.03-.09,0-.04,0-.08-.03-.1-.02-.03-.05-.05-.09-.08-.04-.03-.1-.05-.18-.08l-.86-.38c-.35-.16-.6-.34-.75-.53-.15-.2-.22-.46-.22-.77,0-.25,.03-.45,.1-.62,.06-.16,.17-.29,.31-.39,.14-.1,.32-.17,.55-.21,.23-.04,.51-.06,.83-.06Z"/><path class="e" d="M106.27,26.32c.11,0,.21,.03,.29,.09,.08,.06,.14,.15,.17,.26l1.13,3.99h-1.39l-.65-2.83c-.02-.08-.03-.16-.04-.25-.01-.09-.02-.17-.03-.25h-.17c0,.08-.02,.16-.03,.25-.01,.09-.03,.17-.04,.25l-.65,2.83h-1.39l1.13-3.99c.03-.11,.09-.2,.17-.26,.08-.06,.18-.09,.29-.09h1.24Zm.53,2.45v.96h-2.31v-.96h2.31Z"/><path class="e" d="M113.27,26.24c.23,0,.48,.01,.76,.04,.28,.03,.55,.09,.82,.18l-.08,.87c-.19,0-.42,0-.7,0-.28,0-.55,0-.83,0-.08,0-.15,0-.2,0-.05,0-.09,.01-.12,.03-.03,.01-.05,.03-.06,.05-.01,.02-.02,.05-.02,.08,0,.06,.03,.11,.08,.15,.05,.04,.15,.09,.3,.15l.79,.33c.36,.16,.61,.33,.76,.54,.14,.2,.22,.46,.22,.78,0,.24-.03,.45-.09,.62-.06,.17-.16,.31-.29,.41-.14,.1-.32,.18-.54,.23-.23,.05-.51,.07-.85,.07-.15,0-.37-.01-.67-.03-.3-.02-.64-.08-1.01-.18l.08-.96c.25,0,.48,0,.69,.02,.21,0,.39,.01,.54,.01,.15,0,.27,0,.34,0,.12,0,.21,0,.27-.01,.06,0,.1-.02,.13-.05,.02-.02,.03-.05,.03-.09,0-.04,0-.08-.03-.1-.02-.03-.05-.05-.09-.08-.04-.03-.1-.05-.18-.08l-.86-.38c-.35-.16-.6-.34-.75-.53-.15-.2-.22-.46-.22-.77,0-.25,.03-.45,.1-.62,.06-.16,.17-.29,.31-.39,.14-.1,.32-.17,.55-.21,.23-.04,.51-.06,.83-.06Z"/></g></g></g></g></svg>