<?xml version="1.0" encoding="UTF-8"?><svg xmlns="http://www.w3.org/2000/svg" viewBox="0 0 16.51 16.51"><defs><style>.d{fill:#fff;}.e{fill:#6e90ca;}</style></defs><g id="a"/><g id="b"><g id="c"><g><path class="e" d="M3.39,0H13.12C14.99,0,16.51,1.52,16.51,3.39V13.12c0,1.87-1.52,3.39-3.39,3.39H3.39c-1.87,0-3.39-1.52-3.39-3.39V3.39C0,1.52,1.52,0,3.39,0Z"/><g><path class="d" d="M2.47,6.25h2.48v7.97H2.47V6.25Zm1.24-3.96c.79,0,1.44,.64,1.44,1.44s-.64,1.44-1.44,1.44-1.44-.64-1.44-1.44,.64-1.44,1.44-1.44"/><path class="d" d="M6.51,6.25h2.38v1.09h.03c.33-.63,1.14-1.29,2.34-1.29,2.51,0,2.97,1.65,2.97,3.8v4.37h-2.48v-3.88c0-.92-.02-2.11-1.29-2.11s-1.49,1.01-1.49,2.05v3.94h-2.48V6.25Z"/></g></g></g></g></svg>