<?xml version="1.0" encoding="UTF-8"?><svg xmlns="http://www.w3.org/2000/svg" viewBox="0 0 16.51 16.51"><defs><style>.d{fill:#fff;}.e{fill:#6e90ca;}</style></defs><g id="a"/><g id="b"><g id="c"><g><path class="e" d="M13.11,0H3.39C1.52,0,0,1.52,0,3.39V13.11c0,1.88,1.52,3.4,3.39,3.4H13.11c1.88,0,3.4-1.52,3.4-3.4V3.39c0-1.87-1.52-3.39-3.4-3.39Zm-.2,5.89c.01,.1,.01,.2,.01,.3,0,3.03-2.3,6.52-6.52,6.52-1.29,0-2.5-.38-3.51-1.03,.18,.02,.36,.03,.55,.03,1.07,0,2.05-.36,2.84-.98-1-.02-1.84-.68-2.14-1.59,.14,.02,.28,.04,.43,.04,.21,0,.41-.03,.6-.09-1.05-.2-1.83-1.13-1.83-2.24v-.03c.3,.17,.66,.28,1.04,.28-.62-.4-1.02-1.11-1.02-1.9,0-.42,.11-.81,.31-1.15,1.12,1.39,2.81,2.3,4.72,2.39-.04-.17-.06-.34-.06-.52,0-1.27,1.03-2.29,2.3-2.29,.65,0,1.24,.28,1.67,.73,.52-.11,1.01-.3,1.46-.57-.18,.54-.54,.99-1.02,1.28,.47-.06,.91-.19,1.32-.37-.3,.46-.69,.87-1.15,1.19Z"/><path class="d" d="M12.91,5.89c.01,.1,.01,.2,.01,.3,0,3.03-2.3,6.52-6.52,6.52-1.29,0-2.5-.38-3.51-1.03,.18,.02,.36,.03,.55,.03,1.07,0,2.05-.36,2.84-.98-1-.02-1.84-.68-2.14-1.59,.14,.02,.28,.04,.43,.04,.21,0,.41-.03,.6-.09-1.05-.2-1.83-1.13-1.83-2.24v-.03c.3,.17,.66,.28,1.04,.28-.62-.4-1.02-1.11-1.02-1.9,0-.42,.11-.81,.31-1.15,1.12,1.39,2.81,2.3,4.72,2.39-.04-.17-.06-.34-.06-.52,0-1.27,1.03-2.29,2.3-2.29,.65,0,1.24,.28,1.67,.73,.52-.11,1.01-.3,1.46-.57-.18,.54-.54,.99-1.02,1.28,.47-.06,.91-.19,1.32-.37-.3,.46-.69,.87-1.15,1.19Z"/></g></g></g></svg>